<mxfile host="app.diagrams.net" modified="2020-03-16T19:01:58.178Z" agent="Mozilla/5.0 (Windows NT 10.0; Win64; x64) AppleWebKit/537.36 (KHTML, like Gecko) Chrome/80.0.3987.132 Safari/537.36" etag="2E3KjBUovOFXhJ_wIcJn" version="12.8.4" type="github">
  <diagram id="TiNesMwT4plsfbbR54bP" name="Page-1">
    <mxGraphModel dx="2031" dy="1103" grid="0" gridSize="10" guides="1" tooltips="1" connect="1" arrows="1" fold="1" page="1" pageScale="1" pageWidth="850" pageHeight="1100" math="0" shadow="0">
      <root>
        <mxCell id="0" />
        <mxCell id="1" parent="0" />
        <mxCell id="ZJf0gk8Uf08lzSIq1yCp-80" value="" style="rounded=0;whiteSpace=wrap;html=1;fillColor=#D4E1F5;align=center;" parent="1" vertex="1">
          <mxGeometry x="241" y="30" width="921" height="960" as="geometry" />
        </mxCell>
        <mxCell id="ZJf0gk8Uf08lzSIq1yCp-83" value="" style="rounded=0;whiteSpace=wrap;html=1;fillColor=#CCE5FF;align=center;" parent="1" vertex="1">
          <mxGeometry x="639" y="169" width="483" height="780" as="geometry" />
        </mxCell>
        <mxCell id="ZJf0gk8Uf08lzSIq1yCp-79" value="" style="rounded=0;whiteSpace=wrap;html=1;fillColor=#E6E6E6;align=center;" parent="1" vertex="1">
          <mxGeometry x="65" y="30" width="165" height="960" as="geometry" />
        </mxCell>
        <mxCell id="ZJf0gk8Uf08lzSIq1yCp-4" value="" style="shape=mxgraph.mockup.containers.marginRect;rectMarginTop=10;strokeColor=#666666;strokeWidth=1;dashed=0;rounded=1;arcSize=5;recursiveResize=0;" parent="1" vertex="1">
          <mxGeometry x="330" y="60" width="240" height="190" as="geometry" />
        </mxCell>
        <mxCell id="ZJf0gk8Uf08lzSIq1yCp-5" value="Security MicroService" style="shape=rect;strokeColor=none;fillColor=#008cff;strokeWidth=1;dashed=0;rounded=1;arcSize=20;fontColor=#ffffff;fontSize=17;spacing=2;spacingTop=-2;align=left;autosize=1;spacingLeft=4;resizeWidth=0;resizeHeight=0;perimeter=none;" parent="ZJf0gk8Uf08lzSIq1yCp-4" vertex="1">
          <mxGeometry x="5" width="190" height="30" as="geometry" />
        </mxCell>
        <mxCell id="ZJf0gk8Uf08lzSIq1yCp-9" value="Authentication" style="aspect=fixed;perimeter=ellipsePerimeter;html=1;align=center;shadow=0;dashed=0;spacingTop=3;image;image=img/lib/active_directory/security.svg;" parent="ZJf0gk8Uf08lzSIq1yCp-4" vertex="1">
          <mxGeometry x="90" y="110" width="31.5" height="50" as="geometry" />
        </mxCell>
        <mxCell id="ZJf0gk8Uf08lzSIq1yCp-2" value="API Tokens" style="html=1;whiteSpace=wrap;container=1;recursiveResize=0;collapsible=0;fillColor=#dae8fc;strokeColor=#6c8ebf;" parent="ZJf0gk8Uf08lzSIq1yCp-4" vertex="1">
          <mxGeometry x="35" y="55" width="165" height="45" as="geometry" />
        </mxCell>
        <mxCell id="ZJf0gk8Uf08lzSIq1yCp-3" value="" style="triangle;html=1;whiteSpace=wrap;fillColor=#d80073;strokeColor=#A50040;fontColor=#ffffff;" parent="ZJf0gk8Uf08lzSIq1yCp-2" vertex="1">
          <mxGeometry x="10" y="6.5" width="20" height="30" as="geometry" />
        </mxCell>
        <mxCell id="ZJf0gk8Uf08lzSIq1yCp-46" style="edgeStyle=orthogonalEdgeStyle;rounded=0;orthogonalLoop=1;jettySize=auto;html=1;entryX=0.005;entryY=0.447;entryDx=0;entryDy=0;entryPerimeter=0;" parent="1" source="ZJf0gk8Uf08lzSIq1yCp-10" target="ZJf0gk8Uf08lzSIq1yCp-17" edge="1">
          <mxGeometry relative="1" as="geometry" />
        </mxCell>
        <mxCell id="ZJf0gk8Uf08lzSIq1yCp-10" value="" style="shape=mxgraph.mockup.containers.marginRect;rectMarginTop=10;strokeColor=#666666;strokeWidth=1;dashed=0;rounded=1;arcSize=5;recursiveResize=0;" parent="1" vertex="1">
          <mxGeometry x="331" y="269" width="270" height="110" as="geometry" />
        </mxCell>
        <mxCell id="ZJf0gk8Uf08lzSIq1yCp-11" value="Fraud Service" style="shape=rect;strokeColor=none;fillColor=#008cff;strokeWidth=1;dashed=0;rounded=1;arcSize=20;fontColor=#ffffff;fontSize=17;spacing=2;spacingTop=-2;align=left;autosize=1;spacingLeft=4;resizeWidth=0;resizeHeight=0;perimeter=none;" parent="ZJf0gk8Uf08lzSIq1yCp-10" vertex="1">
          <mxGeometry x="5" width="130" height="30" as="geometry" />
        </mxCell>
        <mxCell id="ZJf0gk8Uf08lzSIq1yCp-15" value="Card Maintenance" style="html=1;whiteSpace=wrap;container=1;recursiveResize=0;collapsible=0;fillColor=#dae8fc;strokeColor=#6c8ebf;align=center;" parent="ZJf0gk8Uf08lzSIq1yCp-10" vertex="1">
          <mxGeometry x="50" y="42.5" width="165" height="45" as="geometry" />
        </mxCell>
        <mxCell id="ZJf0gk8Uf08lzSIq1yCp-16" value="" style="triangle;html=1;whiteSpace=wrap;fillColor=#d80073;strokeColor=#A50040;fontColor=#ffffff;" parent="ZJf0gk8Uf08lzSIq1yCp-15" vertex="1">
          <mxGeometry x="10" y="6.5" width="20" height="30" as="geometry" />
        </mxCell>
        <mxCell id="hTkKEVuBiwZWzqZ8OWEF-34" style="edgeStyle=orthogonalEdgeStyle;rounded=0;orthogonalLoop=1;jettySize=auto;html=1;entryX=1.024;entryY=0.698;entryDx=0;entryDy=0;entryPerimeter=0;" edge="1" parent="1" source="ZJf0gk8Uf08lzSIq1yCp-17" target="hTkKEVuBiwZWzqZ8OWEF-9">
          <mxGeometry relative="1" as="geometry">
            <Array as="points">
              <mxPoint x="873" y="401" />
              <mxPoint x="990" y="401" />
              <mxPoint x="990" y="529" />
            </Array>
          </mxGeometry>
        </mxCell>
        <mxCell id="hTkKEVuBiwZWzqZ8OWEF-46" value="" style="edgeStyle=orthogonalEdgeStyle;rounded=0;orthogonalLoop=1;jettySize=auto;html=1;entryX=1;entryY=0.684;entryDx=0;entryDy=0;exitX=0.998;exitY=0.621;exitDx=0;exitDy=0;exitPerimeter=0;entryPerimeter=0;" edge="1" parent="1" source="ZJf0gk8Uf08lzSIq1yCp-17" target="hTkKEVuBiwZWzqZ8OWEF-23">
          <mxGeometry relative="1" as="geometry">
            <mxPoint x="1398" y="295" as="targetPoint" />
            <Array as="points">
              <mxPoint x="1014" y="316" />
              <mxPoint x="1073" y="316" />
              <mxPoint x="1073" y="703" />
              <mxPoint x="938" y="703" />
            </Array>
          </mxGeometry>
        </mxCell>
        <mxCell id="ZJf0gk8Uf08lzSIq1yCp-17" value="" style="shape=mxgraph.mockup.containers.marginRect;rectMarginTop=10;strokeColor=#666666;strokeWidth=1;dashed=0;rounded=1;arcSize=5;recursiveResize=0;" parent="1" vertex="1">
          <mxGeometry x="731" y="214" width="284" height="170" as="geometry" />
        </mxCell>
        <mxCell id="ZJf0gk8Uf08lzSIq1yCp-18" value="Siebel Card Service" style="shape=rect;strokeColor=none;fillColor=#008cff;strokeWidth=1;dashed=0;rounded=1;arcSize=20;fontColor=#ffffff;fontSize=17;spacing=2;spacingTop=-2;align=left;autosize=1;spacingLeft=4;resizeWidth=0;resizeHeight=0;perimeter=none;" parent="ZJf0gk8Uf08lzSIq1yCp-17" vertex="1">
          <mxGeometry x="5" y="2" width="168" height="26" as="geometry" />
        </mxCell>
        <mxCell id="ZJf0gk8Uf08lzSIq1yCp-19" value="&amp;nbsp; &amp;nbsp; Card Service" style="html=1;whiteSpace=wrap;container=1;recursiveResize=0;collapsible=0;fillColor=#dae8fc;strokeColor=#6c8ebf;align=center;" parent="ZJf0gk8Uf08lzSIq1yCp-17" vertex="1">
          <mxGeometry x="24" y="42.5" width="140" height="45" as="geometry" />
        </mxCell>
        <mxCell id="ZJf0gk8Uf08lzSIq1yCp-20" value="" style="triangle;html=1;whiteSpace=wrap;fillColor=#d80073;strokeColor=#A50040;fontColor=#ffffff;" parent="ZJf0gk8Uf08lzSIq1yCp-19" vertex="1">
          <mxGeometry x="10" y="6.5" width="20" height="30" as="geometry" />
        </mxCell>
        <mxCell id="ZJf0gk8Uf08lzSIq1yCp-23" value="" style="html=1;whiteSpace=wrap;container=1;recursiveResize=0;collapsible=0;fillColor=#dae8fc;strokeColor=#6c8ebf;align=center;" parent="ZJf0gk8Uf08lzSIq1yCp-17" vertex="1">
          <mxGeometry x="53" y="103.5" width="62" height="45" as="geometry" />
        </mxCell>
        <mxCell id="ZJf0gk8Uf08lzSIq1yCp-24" value="" style="triangle;html=1;whiteSpace=wrap;fillColor=#d80073;strokeColor=#A50040;fontColor=#ffffff;" parent="ZJf0gk8Uf08lzSIq1yCp-23" vertex="1">
          <mxGeometry x="10" y="6.5" width="20" height="30" as="geometry" />
        </mxCell>
        <mxCell id="hTkKEVuBiwZWzqZ8OWEF-7" value="" style="html=1;whiteSpace=wrap;container=1;recursiveResize=0;collapsible=0;fillColor=#dae8fc;strokeColor=#6c8ebf;align=center;" vertex="1" parent="ZJf0gk8Uf08lzSIq1yCp-17">
          <mxGeometry x="134" y="103.5" width="58" height="45" as="geometry" />
        </mxCell>
        <mxCell id="hTkKEVuBiwZWzqZ8OWEF-8" value="" style="triangle;html=1;whiteSpace=wrap;fillColor=#d80073;strokeColor=#A50040;fontColor=#ffffff;" vertex="1" parent="hTkKEVuBiwZWzqZ8OWEF-7">
          <mxGeometry x="10" y="6.5" width="20" height="30" as="geometry" />
        </mxCell>
        <mxCell id="hTkKEVuBiwZWzqZ8OWEF-31" value="" style="html=1;whiteSpace=wrap;container=1;recursiveResize=0;collapsible=0;fillColor=#dae8fc;strokeColor=#6c8ebf;align=center;" vertex="1" parent="ZJf0gk8Uf08lzSIq1yCp-17">
          <mxGeometry x="207" y="103.5" width="58" height="45" as="geometry" />
        </mxCell>
        <mxCell id="hTkKEVuBiwZWzqZ8OWEF-32" value="" style="triangle;html=1;whiteSpace=wrap;fillColor=#d80073;strokeColor=#A50040;fontColor=#ffffff;" vertex="1" parent="hTkKEVuBiwZWzqZ8OWEF-31">
          <mxGeometry x="10" y="6.5" width="20" height="30" as="geometry" />
        </mxCell>
        <mxCell id="ZJf0gk8Uf08lzSIq1yCp-44" style="edgeStyle=orthogonalEdgeStyle;rounded=0;orthogonalLoop=1;jettySize=auto;html=1;entryX=0.001;entryY=0.476;entryDx=0;entryDy=0;entryPerimeter=0;" parent="1" source="ZJf0gk8Uf08lzSIq1yCp-27" target="hTkKEVuBiwZWzqZ8OWEF-49" edge="1">
          <mxGeometry relative="1" as="geometry">
            <mxPoint x="1032.476" y="854.8600000000001" as="targetPoint" />
          </mxGeometry>
        </mxCell>
        <mxCell id="ZJf0gk8Uf08lzSIq1yCp-27" value="" style="shape=mxgraph.mockup.containers.marginRect;rectMarginTop=10;strokeColor=#666666;strokeWidth=1;dashed=0;rounded=1;arcSize=5;recursiveResize=0;" parent="1" vertex="1">
          <mxGeometry x="318" y="803" width="270" height="110" as="geometry" />
        </mxCell>
        <mxCell id="ZJf0gk8Uf08lzSIq1yCp-28" value="Account Renewal" style="shape=rect;strokeColor=none;fillColor=#008cff;strokeWidth=1;dashed=0;rounded=1;arcSize=20;fontColor=#ffffff;fontSize=17;spacing=2;spacingTop=-2;align=left;autosize=1;spacingLeft=4;resizeWidth=0;resizeHeight=0;perimeter=none;" parent="ZJf0gk8Uf08lzSIq1yCp-27" vertex="1">
          <mxGeometry x="5" width="160" height="30" as="geometry" />
        </mxCell>
        <mxCell id="ZJf0gk8Uf08lzSIq1yCp-29" value="&amp;nbsp; &amp;nbsp; Account Maintenance" style="html=1;whiteSpace=wrap;container=1;recursiveResize=0;collapsible=0;fillColor=#dae8fc;strokeColor=#6c8ebf;align=center;" parent="ZJf0gk8Uf08lzSIq1yCp-27" vertex="1">
          <mxGeometry x="50" y="42.5" width="165" height="45" as="geometry" />
        </mxCell>
        <mxCell id="ZJf0gk8Uf08lzSIq1yCp-30" value="" style="triangle;html=1;whiteSpace=wrap;fillColor=#d80073;strokeColor=#A50040;fontColor=#ffffff;" parent="ZJf0gk8Uf08lzSIq1yCp-29" vertex="1">
          <mxGeometry x="10" y="6.5" width="20" height="30" as="geometry" />
        </mxCell>
        <mxCell id="ZJf0gk8Uf08lzSIq1yCp-45" style="edgeStyle=orthogonalEdgeStyle;rounded=0;orthogonalLoop=1;jettySize=auto;html=1;exitX=1.025;exitY=0.61;exitDx=0;exitDy=0;exitPerimeter=0;" parent="1" source="ZJf0gk8Uf08lzSIq1yCp-34" edge="1">
          <mxGeometry relative="1" as="geometry">
            <mxPoint x="1031" y="334" as="targetPoint" />
            <Array as="points">
              <mxPoint x="915" y="734" />
              <mxPoint x="915" y="334" />
            </Array>
          </mxGeometry>
        </mxCell>
        <mxCell id="ZJf0gk8Uf08lzSIq1yCp-34" value="" style="shape=mxgraph.mockup.containers.marginRect;rectMarginTop=10;strokeColor=#666666;strokeWidth=1;dashed=0;rounded=1;arcSize=5;recursiveResize=0;" parent="1" vertex="1">
          <mxGeometry x="318" y="667" width="270" height="110" as="geometry" />
        </mxCell>
        <mxCell id="ZJf0gk8Uf08lzSIq1yCp-35" value="IOL Maintenance" style="shape=rect;strokeColor=none;fillColor=#008cff;strokeWidth=1;dashed=0;rounded=1;arcSize=20;fontColor=#ffffff;fontSize=17;spacing=2;spacingTop=-2;align=left;autosize=1;spacingLeft=4;resizeWidth=0;resizeHeight=0;perimeter=none;" parent="ZJf0gk8Uf08lzSIq1yCp-34" vertex="1">
          <mxGeometry x="5" width="150" height="30" as="geometry" />
        </mxCell>
        <mxCell id="ZJf0gk8Uf08lzSIq1yCp-36" value="&amp;nbsp; &amp;nbsp; Card Maintenance" style="html=1;whiteSpace=wrap;container=1;recursiveResize=0;collapsible=0;fillColor=#dae8fc;strokeColor=#6c8ebf;align=center;" parent="ZJf0gk8Uf08lzSIq1yCp-34" vertex="1">
          <mxGeometry x="50" y="42.5" width="165" height="45" as="geometry" />
        </mxCell>
        <mxCell id="ZJf0gk8Uf08lzSIq1yCp-37" value="" style="triangle;html=1;whiteSpace=wrap;fillColor=#d80073;strokeColor=#A50040;fontColor=#ffffff;" parent="ZJf0gk8Uf08lzSIq1yCp-36" vertex="1">
          <mxGeometry x="10" y="6.5" width="20" height="30" as="geometry" />
        </mxCell>
        <mxCell id="ZJf0gk8Uf08lzSIq1yCp-52" style="edgeStyle=orthogonalEdgeStyle;rounded=0;orthogonalLoop=1;jettySize=auto;html=1;entryX=-0.004;entryY=0.673;entryDx=0;entryDy=0;entryPerimeter=0;" parent="1" source="ZJf0gk8Uf08lzSIq1yCp-47" target="ZJf0gk8Uf08lzSIq1yCp-27" edge="1">
          <mxGeometry relative="1" as="geometry" />
        </mxCell>
        <mxCell id="ZJf0gk8Uf08lzSIq1yCp-47" value="&lt;br&gt;&lt;br&gt;&lt;br&gt;&lt;br&gt;&lt;br&gt;AccountRenewal" style="html=1;dashed=0;whitespace=wrap;fillColor=#2875E2;strokeColor=#ffffff;points=[[0.005,0.63,0],[0.1,0.2,0],[0.9,0.2,0],[0.5,0,0],[0.995,0.63,0],[0.72,0.99,0],[0.5,1,0],[0.28,0.99,0]];shape=mxgraph.kubernetes.icon;prIcon=job;align=center;" parent="1" vertex="1">
          <mxGeometry x="105" y="854" width="50" height="48" as="geometry" />
        </mxCell>
        <mxCell id="ZJf0gk8Uf08lzSIq1yCp-53" style="edgeStyle=orthogonalEdgeStyle;rounded=0;orthogonalLoop=1;jettySize=auto;html=1;entryX=-0.015;entryY=0.591;entryDx=0;entryDy=0;entryPerimeter=0;" parent="1" source="ZJf0gk8Uf08lzSIq1yCp-48" target="ZJf0gk8Uf08lzSIq1yCp-34" edge="1">
          <mxGeometry relative="1" as="geometry" />
        </mxCell>
        <mxCell id="ZJf0gk8Uf08lzSIq1yCp-48" value="&lt;br&gt;&lt;br&gt;&lt;br&gt;&lt;br&gt;&lt;br&gt;IOL Maintenance" style="html=1;dashed=0;whitespace=wrap;fillColor=#2875E2;strokeColor=#ffffff;points=[[0.005,0.63,0],[0.1,0.2,0],[0.9,0.2,0],[0.5,0,0],[0.995,0.63,0],[0.72,0.99,0],[0.5,1,0],[0.28,0.99,0]];shape=mxgraph.kubernetes.icon;prIcon=job;align=center;" parent="1" vertex="1">
          <mxGeometry x="105" y="678" width="50" height="48" as="geometry" />
        </mxCell>
        <mxCell id="ZJf0gk8Uf08lzSIq1yCp-50" style="edgeStyle=orthogonalEdgeStyle;rounded=0;orthogonalLoop=1;jettySize=auto;html=1;entryX=0;entryY=0.538;entryDx=0;entryDy=0;entryPerimeter=0;" parent="1" source="ZJf0gk8Uf08lzSIq1yCp-49" target="ZJf0gk8Uf08lzSIq1yCp-4" edge="1">
          <mxGeometry relative="1" as="geometry" />
        </mxCell>
        <mxCell id="ZJf0gk8Uf08lzSIq1yCp-51" style="edgeStyle=orthogonalEdgeStyle;rounded=0;orthogonalLoop=1;jettySize=auto;html=1;entryX=0;entryY=0.709;entryDx=0;entryDy=0;entryPerimeter=0;" parent="1" source="ZJf0gk8Uf08lzSIq1yCp-49" target="ZJf0gk8Uf08lzSIq1yCp-10" edge="1">
          <mxGeometry relative="1" as="geometry" />
        </mxCell>
        <mxCell id="ZJf0gk8Uf08lzSIq1yCp-49" value="&lt;font style=&quot;font-size: 12px&quot;&gt;Service Consumer&lt;/font&gt;" style="fillColor=#c0f5a9;dashed=0;outlineConnect=0;strokeWidth=2;html=1;align=center;fontSize=8;verticalLabelPosition=bottom;verticalAlign=top;shape=mxgraph.eip.event_driven_consumer;" parent="1" vertex="1">
          <mxGeometry x="101" y="326" width="80" height="41" as="geometry" />
        </mxCell>
        <mxCell id="ZJf0gk8Uf08lzSIq1yCp-77" style="edgeStyle=orthogonalEdgeStyle;rounded=0;orthogonalLoop=1;jettySize=auto;html=1;entryX=-0.015;entryY=0.492;entryDx=0;entryDy=0;entryPerimeter=0;" parent="1" source="ZJf0gk8Uf08lzSIq1yCp-56" target="ZJf0gk8Uf08lzSIq1yCp-57" edge="1">
          <mxGeometry relative="1" as="geometry" />
        </mxCell>
        <mxCell id="ZJf0gk8Uf08lzSIq1yCp-56" value="" style="verticalLabelPosition=bottom;html=1;verticalAlign=top;align=center;strokeColor=none;fillColor=#00BEF2;shape=mxgraph.azure.user;" parent="1" vertex="1">
          <mxGeometry x="121.25" y="1145" width="47.5" height="50" as="geometry" />
        </mxCell>
        <mxCell id="ZJf0gk8Uf08lzSIq1yCp-66" style="edgeStyle=orthogonalEdgeStyle;rounded=0;orthogonalLoop=1;jettySize=auto;html=1;" parent="1" source="ZJf0gk8Uf08lzSIq1yCp-57" target="ZJf0gk8Uf08lzSIq1yCp-62" edge="1">
          <mxGeometry relative="1" as="geometry" />
        </mxCell>
        <mxCell id="ZJf0gk8Uf08lzSIq1yCp-57" value="" style="shape=mxgraph.mockup.containers.marginRect;rectMarginTop=10;strokeColor=#666666;strokeWidth=1;dashed=0;rounded=1;arcSize=5;recursiveResize=0;" parent="1" vertex="1">
          <mxGeometry x="331" y="1104" width="270" height="120" as="geometry" />
        </mxCell>
        <mxCell id="ZJf0gk8Uf08lzSIq1yCp-58" value="Web App" style="shape=rect;strokeColor=none;fillColor=#008cff;strokeWidth=1;dashed=0;rounded=1;arcSize=20;fontColor=#ffffff;fontSize=17;spacing=2;spacingTop=-2;align=left;autosize=1;spacingLeft=4;resizeWidth=0;resizeHeight=0;perimeter=none;" parent="ZJf0gk8Uf08lzSIq1yCp-57" vertex="1">
          <mxGeometry x="5" y="2" width="87" height="26" as="geometry" />
        </mxCell>
        <mxCell id="ZJf0gk8Uf08lzSIq1yCp-61" value="Web Container" style="html=1;strokeColor=none;fillColor=#0079D6;labelPosition=center;verticalLabelPosition=middle;verticalAlign=top;align=center;fontSize=12;outlineConnect=0;spacingTop=-6;fontColor=#FFFFFF;shape=mxgraph.sitemap.cloud;" parent="ZJf0gk8Uf08lzSIq1yCp-57" vertex="1">
          <mxGeometry x="75" y="40" width="120" height="70" as="geometry" />
        </mxCell>
        <mxCell id="ZJf0gk8Uf08lzSIq1yCp-62" value="" style="shape=mxgraph.mockup.containers.marginRect;rectMarginTop=10;strokeColor=#666666;strokeWidth=1;dashed=0;rounded=1;arcSize=5;recursiveResize=0;" parent="1" vertex="1">
          <mxGeometry x="1021" y="1100" width="270" height="180" as="geometry" />
        </mxCell>
        <mxCell id="ZJf0gk8Uf08lzSIq1yCp-63" value="WEXLINK Service" style="shape=rect;strokeColor=none;fillColor=#008cff;strokeWidth=1;dashed=0;rounded=1;arcSize=20;fontColor=#ffffff;fontSize=17;spacing=2;spacingTop=-2;align=left;autosize=1;spacingLeft=4;resizeWidth=0;resizeHeight=0;perimeter=none;" parent="ZJf0gk8Uf08lzSIq1yCp-62" vertex="1">
          <mxGeometry x="5" width="160" height="30" as="geometry" />
        </mxCell>
        <mxCell id="ZJf0gk8Uf08lzSIq1yCp-64" value="&amp;nbsp; &amp;nbsp; Bulk Framework" style="html=1;whiteSpace=wrap;container=1;recursiveResize=0;collapsible=0;fillColor=#dae8fc;strokeColor=#6c8ebf;align=center;" parent="ZJf0gk8Uf08lzSIq1yCp-62" vertex="1">
          <mxGeometry x="50" y="42.5" width="165" height="45" as="geometry" />
        </mxCell>
        <mxCell id="ZJf0gk8Uf08lzSIq1yCp-65" value="" style="triangle;html=1;whiteSpace=wrap;fillColor=#d80073;strokeColor=#A50040;fontColor=#ffffff;" parent="ZJf0gk8Uf08lzSIq1yCp-64" vertex="1">
          <mxGeometry x="10" y="6.5" width="20" height="30" as="geometry" />
        </mxCell>
        <mxCell id="ZJf0gk8Uf08lzSIq1yCp-67" value="&amp;nbsp; &amp;nbsp; Java EE" style="html=1;whiteSpace=wrap;container=1;recursiveResize=0;collapsible=0;fillColor=#dae8fc;strokeColor=#6c8ebf;align=center;" parent="ZJf0gk8Uf08lzSIq1yCp-62" vertex="1">
          <mxGeometry x="50" y="100" width="165" height="45" as="geometry" />
        </mxCell>
        <mxCell id="ZJf0gk8Uf08lzSIq1yCp-68" value="" style="triangle;html=1;whiteSpace=wrap;fillColor=#d80073;strokeColor=#A50040;fontColor=#ffffff;" parent="ZJf0gk8Uf08lzSIq1yCp-67" vertex="1">
          <mxGeometry x="10" y="6.5" width="20" height="30" as="geometry" />
        </mxCell>
        <mxCell id="ZJf0gk8Uf08lzSIq1yCp-81" value="" style="shape=image;html=1;verticalAlign=top;verticalLabelPosition=bottom;labelBackgroundColor=#ffffff;imageAspect=0;aspect=fixed;image=https://cdn3.iconfinder.com/data/icons/social-media-2169/24/social_media_social_media_logo_docker-128.png;fillColor=#D4E1F5;align=center;" parent="1" vertex="1">
          <mxGeometry x="1032" y="60" width="88" height="88" as="geometry" />
        </mxCell>
        <mxCell id="ZJf0gk8Uf08lzSIq1yCp-82" value="" style="pointerEvents=1;shadow=0;dashed=0;html=1;strokeColor=none;fillColor=#DF8C42;labelPosition=center;verticalLabelPosition=bottom;verticalAlign=top;align=center;outlineConnect=0;shape=mxgraph.veeam2.linux;" parent="1" vertex="1">
          <mxGeometry x="926" y="65" width="80" height="75" as="geometry" />
        </mxCell>
        <mxCell id="hTkKEVuBiwZWzqZ8OWEF-9" value="" style="shape=mxgraph.mockup.containers.marginRect;rectMarginTop=10;strokeColor=#666666;strokeWidth=1;dashed=0;rounded=1;arcSize=5;recursiveResize=0;" vertex="1" parent="1">
          <mxGeometry x="729" y="420" width="202" height="156" as="geometry" />
        </mxCell>
        <mxCell id="hTkKEVuBiwZWzqZ8OWEF-10" value="Siebel Driver Service" style="shape=rect;strokeColor=none;fillColor=#008cff;strokeWidth=1;dashed=0;rounded=1;arcSize=20;fontColor=#ffffff;fontSize=17;spacing=2;spacingTop=-2;align=left;autosize=1;spacingLeft=4;resizeWidth=0;resizeHeight=0;perimeter=none;" vertex="1" parent="hTkKEVuBiwZWzqZ8OWEF-9">
          <mxGeometry x="5" y="2" width="177" height="26" as="geometry" />
        </mxCell>
        <mxCell id="hTkKEVuBiwZWzqZ8OWEF-11" value="&amp;nbsp;Driver Service" style="html=1;whiteSpace=wrap;container=1;recursiveResize=0;collapsible=0;fillColor=#dae8fc;strokeColor=#6c8ebf;align=center;" vertex="1" parent="hTkKEVuBiwZWzqZ8OWEF-9">
          <mxGeometry x="26" y="42.5" width="139" height="45" as="geometry" />
        </mxCell>
        <mxCell id="hTkKEVuBiwZWzqZ8OWEF-12" value="" style="triangle;html=1;whiteSpace=wrap;fillColor=#d80073;strokeColor=#A50040;fontColor=#ffffff;" vertex="1" parent="hTkKEVuBiwZWzqZ8OWEF-11">
          <mxGeometry x="10" y="6.5" width="20" height="30" as="geometry" />
        </mxCell>
        <mxCell id="hTkKEVuBiwZWzqZ8OWEF-17" value="" style="html=1;whiteSpace=wrap;container=1;recursiveResize=0;collapsible=0;fillColor=#dae8fc;strokeColor=#6c8ebf;align=center;" vertex="1" parent="hTkKEVuBiwZWzqZ8OWEF-9">
          <mxGeometry x="29" y="103" width="62" height="45" as="geometry" />
        </mxCell>
        <mxCell id="hTkKEVuBiwZWzqZ8OWEF-18" value="" style="triangle;html=1;whiteSpace=wrap;fillColor=#d80073;strokeColor=#A50040;fontColor=#ffffff;" vertex="1" parent="hTkKEVuBiwZWzqZ8OWEF-17">
          <mxGeometry x="10" y="6.5" width="20" height="30" as="geometry" />
        </mxCell>
        <mxCell id="hTkKEVuBiwZWzqZ8OWEF-20" value="" style="html=1;whiteSpace=wrap;container=1;recursiveResize=0;collapsible=0;fillColor=#dae8fc;strokeColor=#6c8ebf;align=center;" vertex="1" parent="hTkKEVuBiwZWzqZ8OWEF-9">
          <mxGeometry x="103" y="100" width="62" height="45" as="geometry" />
        </mxCell>
        <mxCell id="hTkKEVuBiwZWzqZ8OWEF-21" value="" style="triangle;html=1;whiteSpace=wrap;fillColor=#d80073;strokeColor=#A50040;fontColor=#ffffff;" vertex="1" parent="hTkKEVuBiwZWzqZ8OWEF-20">
          <mxGeometry x="10" y="6.5" width="20" height="30" as="geometry" />
        </mxCell>
        <mxCell id="hTkKEVuBiwZWzqZ8OWEF-23" value="" style="shape=mxgraph.mockup.containers.marginRect;rectMarginTop=10;strokeColor=#666666;strokeWidth=1;dashed=0;rounded=1;arcSize=5;recursiveResize=0;" vertex="1" parent="1">
          <mxGeometry x="729" y="593" width="209" height="156" as="geometry" />
        </mxCell>
        <mxCell id="hTkKEVuBiwZWzqZ8OWEF-24" value="Siebel Vechicle Service" style="shape=rect;strokeColor=none;fillColor=#008cff;strokeWidth=1;dashed=0;rounded=1;arcSize=20;fontColor=#ffffff;fontSize=17;spacing=2;spacingTop=-2;align=left;autosize=1;spacingLeft=4;resizeWidth=0;resizeHeight=0;perimeter=none;" vertex="1" parent="hTkKEVuBiwZWzqZ8OWEF-23">
          <mxGeometry x="5" y="2" width="195" height="26" as="geometry" />
        </mxCell>
        <mxCell id="hTkKEVuBiwZWzqZ8OWEF-25" value="&amp;nbsp;Asset Service" style="html=1;whiteSpace=wrap;container=1;recursiveResize=0;collapsible=0;fillColor=#dae8fc;strokeColor=#6c8ebf;align=center;" vertex="1" parent="hTkKEVuBiwZWzqZ8OWEF-23">
          <mxGeometry x="26" y="42.5" width="139" height="45" as="geometry" />
        </mxCell>
        <mxCell id="hTkKEVuBiwZWzqZ8OWEF-26" value="" style="triangle;html=1;whiteSpace=wrap;fillColor=#d80073;strokeColor=#A50040;fontColor=#ffffff;" vertex="1" parent="hTkKEVuBiwZWzqZ8OWEF-25">
          <mxGeometry x="10" y="6.5" width="20" height="30" as="geometry" />
        </mxCell>
        <mxCell id="hTkKEVuBiwZWzqZ8OWEF-27" value="" style="html=1;whiteSpace=wrap;container=1;recursiveResize=0;collapsible=0;fillColor=#dae8fc;strokeColor=#6c8ebf;align=center;" vertex="1" parent="hTkKEVuBiwZWzqZ8OWEF-23">
          <mxGeometry x="29" y="103" width="62" height="45" as="geometry" />
        </mxCell>
        <mxCell id="hTkKEVuBiwZWzqZ8OWEF-28" value="" style="triangle;html=1;whiteSpace=wrap;fillColor=#d80073;strokeColor=#A50040;fontColor=#ffffff;" vertex="1" parent="hTkKEVuBiwZWzqZ8OWEF-27">
          <mxGeometry x="10" y="6.5" width="20" height="30" as="geometry" />
        </mxCell>
        <mxCell id="hTkKEVuBiwZWzqZ8OWEF-29" value="" style="html=1;whiteSpace=wrap;container=1;recursiveResize=0;collapsible=0;fillColor=#dae8fc;strokeColor=#6c8ebf;align=center;" vertex="1" parent="hTkKEVuBiwZWzqZ8OWEF-23">
          <mxGeometry x="103" y="100" width="62" height="45" as="geometry" />
        </mxCell>
        <mxCell id="hTkKEVuBiwZWzqZ8OWEF-30" value="" style="triangle;html=1;whiteSpace=wrap;fillColor=#d80073;strokeColor=#A50040;fontColor=#ffffff;" vertex="1" parent="hTkKEVuBiwZWzqZ8OWEF-29">
          <mxGeometry x="10" y="6.5" width="20" height="30" as="geometry" />
        </mxCell>
        <mxCell id="hTkKEVuBiwZWzqZ8OWEF-49" value="" style="shape=mxgraph.mockup.containers.marginRect;rectMarginTop=10;strokeColor=#666666;strokeWidth=1;dashed=0;rounded=1;arcSize=5;recursiveResize=0;" vertex="1" parent="1">
          <mxGeometry x="733" y="767" width="243" height="156" as="geometry" />
        </mxCell>
        <mxCell id="hTkKEVuBiwZWzqZ8OWEF-50" value="Siebel Account Service" style="shape=rect;strokeColor=none;fillColor=#008cff;strokeWidth=1;dashed=0;rounded=1;arcSize=20;fontColor=#ffffff;fontSize=17;spacing=2;spacingTop=-2;align=left;autosize=1;spacingLeft=4;resizeWidth=0;resizeHeight=0;perimeter=none;" vertex="1" parent="hTkKEVuBiwZWzqZ8OWEF-49">
          <mxGeometry x="5" y="2" width="192" height="26" as="geometry" />
        </mxCell>
        <mxCell id="hTkKEVuBiwZWzqZ8OWEF-51" value="Account Service" style="html=1;whiteSpace=wrap;container=1;recursiveResize=0;collapsible=0;fillColor=#dae8fc;strokeColor=#6c8ebf;align=center;" vertex="1" parent="hTkKEVuBiwZWzqZ8OWEF-49">
          <mxGeometry x="26" y="42.5" width="165" height="45" as="geometry" />
        </mxCell>
        <mxCell id="hTkKEVuBiwZWzqZ8OWEF-52" value="" style="triangle;html=1;whiteSpace=wrap;fillColor=#d80073;strokeColor=#A50040;fontColor=#ffffff;" vertex="1" parent="hTkKEVuBiwZWzqZ8OWEF-51">
          <mxGeometry x="10" y="6.5" width="20" height="30" as="geometry" />
        </mxCell>
        <mxCell id="hTkKEVuBiwZWzqZ8OWEF-53" value="" style="html=1;whiteSpace=wrap;container=1;recursiveResize=0;collapsible=0;fillColor=#dae8fc;strokeColor=#6c8ebf;align=center;" vertex="1" parent="hTkKEVuBiwZWzqZ8OWEF-49">
          <mxGeometry x="56" y="103" width="62" height="45" as="geometry" />
        </mxCell>
        <mxCell id="hTkKEVuBiwZWzqZ8OWEF-54" value="" style="triangle;html=1;whiteSpace=wrap;fillColor=#d80073;strokeColor=#A50040;fontColor=#ffffff;" vertex="1" parent="hTkKEVuBiwZWzqZ8OWEF-53">
          <mxGeometry x="10" y="6.5" width="20" height="30" as="geometry" />
        </mxCell>
        <mxCell id="hTkKEVuBiwZWzqZ8OWEF-55" value="" style="html=1;whiteSpace=wrap;container=1;recursiveResize=0;collapsible=0;fillColor=#dae8fc;strokeColor=#6c8ebf;align=center;" vertex="1" parent="hTkKEVuBiwZWzqZ8OWEF-49">
          <mxGeometry x="130" y="102" width="62" height="45" as="geometry" />
        </mxCell>
        <mxCell id="hTkKEVuBiwZWzqZ8OWEF-56" value="" style="triangle;html=1;whiteSpace=wrap;fillColor=#d80073;strokeColor=#A50040;fontColor=#ffffff;" vertex="1" parent="hTkKEVuBiwZWzqZ8OWEF-55">
          <mxGeometry x="10" y="6.5" width="20" height="30" as="geometry" />
        </mxCell>
        <mxCell id="hTkKEVuBiwZWzqZ8OWEF-73" style="edgeStyle=orthogonalEdgeStyle;rounded=0;orthogonalLoop=1;jettySize=auto;html=1;" edge="1" parent="1" source="hTkKEVuBiwZWzqZ8OWEF-67" target="hTkKEVuBiwZWzqZ8OWEF-68">
          <mxGeometry relative="1" as="geometry" />
        </mxCell>
        <mxCell id="hTkKEVuBiwZWzqZ8OWEF-67" value="&lt;font style=&quot;font-size: 12px&quot;&gt;Service Consumer&lt;/font&gt;" style="fillColor=#c0f5a9;dashed=0;outlineConnect=0;strokeWidth=2;html=1;align=center;fontSize=8;verticalLabelPosition=bottom;verticalAlign=top;shape=mxgraph.eip.event_driven_consumer;" vertex="1" parent="1">
          <mxGeometry x="97" y="431.5" width="80" height="41" as="geometry" />
        </mxCell>
        <mxCell id="hTkKEVuBiwZWzqZ8OWEF-72" style="edgeStyle=orthogonalEdgeStyle;rounded=0;orthogonalLoop=1;jettySize=auto;html=1;" edge="1" parent="1" source="hTkKEVuBiwZWzqZ8OWEF-68" target="hTkKEVuBiwZWzqZ8OWEF-9">
          <mxGeometry relative="1" as="geometry" />
        </mxCell>
        <mxCell id="hTkKEVuBiwZWzqZ8OWEF-68" value="" style="shape=mxgraph.mockup.containers.marginRect;rectMarginTop=10;strokeColor=#666666;strokeWidth=1;dashed=0;rounded=1;arcSize=5;recursiveResize=0;" vertex="1" parent="1">
          <mxGeometry x="326" y="397" width="270" height="110" as="geometry" />
        </mxCell>
        <mxCell id="hTkKEVuBiwZWzqZ8OWEF-69" value="Driver Service" style="shape=rect;strokeColor=none;fillColor=#008cff;strokeWidth=1;dashed=0;rounded=1;arcSize=20;fontColor=#ffffff;fontSize=17;spacing=2;spacingTop=-2;align=left;autosize=1;spacingLeft=4;resizeWidth=0;resizeHeight=0;perimeter=none;" vertex="1" parent="hTkKEVuBiwZWzqZ8OWEF-68">
          <mxGeometry x="5" y="2" width="125" height="26" as="geometry" />
        </mxCell>
        <mxCell id="hTkKEVuBiwZWzqZ8OWEF-70" value="Card Maintenance" style="html=1;whiteSpace=wrap;container=1;recursiveResize=0;collapsible=0;fillColor=#dae8fc;strokeColor=#6c8ebf;align=center;" vertex="1" parent="hTkKEVuBiwZWzqZ8OWEF-68">
          <mxGeometry x="50" y="42.5" width="165" height="45" as="geometry" />
        </mxCell>
        <mxCell id="hTkKEVuBiwZWzqZ8OWEF-71" value="" style="triangle;html=1;whiteSpace=wrap;fillColor=#d80073;strokeColor=#A50040;fontColor=#ffffff;" vertex="1" parent="hTkKEVuBiwZWzqZ8OWEF-70">
          <mxGeometry x="10" y="6.5" width="20" height="30" as="geometry" />
        </mxCell>
      </root>
    </mxGraphModel>
  </diagram>
</mxfile>
